<svg width="144" height="144" viewBox="0 0 144 144" fill="none" xmlns="http://www.w3.org/2000/svg">
<g filter="url(#filter0_d_36_998)">
<rect x="12" y="4" width="120" height="120" rx="60" fill="white"/>
<g clip-path="url(#clip0_36_998)">
<path d="M27.2922 96.5001C24.1499 93.0662 22.0551 88.2114 22 81.8764C22.2205 69.0288 30.5446 62.1609 39.4752 61.2136C39.42 39.7812 60.5887 32.7949 73.4332 41.1429" stroke="#1D4D79" stroke-width="3" stroke-miterlimit="10"/>
<path d="M102.154 61.0952C111.967 60.9768 121.779 67.9039 122 81.8764C121.89 88.1522 119.795 93.0663 116.542 96.5002" stroke="#1D4D79" stroke-width="3" stroke-miterlimit="10"/>
<path d="M92.0107 55.5884C94.0504 57.1277 95.7594 59.3183 96.8068 61.9234C98.5157 61.4497 100.335 61.1537 102.154 61.1537" stroke="#1D4D79" stroke-width="3" stroke-miterlimit="10"/>
<path d="M96.752 52.4509C94.8226 53.7534 93.279 54.7599 92.0111 55.5888C82.6947 48.6025 68.4169 53.9902 67.4246 66.9562C65.3849 67.5483 63.7311 68.0812 63.7311 68.0812C62.353 68.4956 61.1402 67.0154 61.6914 65.5945C62.0222 63.9368 66.4323 54.7599 65.4952 53.2798L59.5966 43.8069C58.8248 42.5043 59.7069 40.8466 61.1402 40.965C62.2978 40.965 72.2758 42.5043 73.4334 41.2018C73.4886 41.1426 73.4885 41.0834 73.5437 41.0834C83.1357 27.999 81.7576 27.7029 85.451 43.9845C85.7267 46.8856 101.272 47.9513 96.752 52.4509Z" fill="#1D4D79" stroke="#1D4D79" stroke-width="3" stroke-miterlimit="10"/>
</g>
<rect x="24" y="16" width="96" height="96" rx="48" stroke="#1D4D79" stroke-width="4"/>
</g>
<defs>
<filter id="filter0_d_36_998" x="0.1" y="0.1" width="143.8" height="143.8" filterUnits="userSpaceOnUse" color-interpolation-filters="sRGB">
<feFlood flood-opacity="0" result="BackgroundImageFix"/>
<feColorMatrix in="SourceAlpha" type="matrix" values="0 0 0 0 0 0 0 0 0 0 0 0 0 0 0 0 0 0 127 0" result="hardAlpha"/>
<feMorphology radius="7" operator="erode" in="SourceAlpha" result="effect1_dropShadow_36_998"/>
<feOffset dy="8"/>
<feGaussianBlur stdDeviation="9.45"/>
<feComposite in2="hardAlpha" operator="out"/>
<feColorMatrix type="matrix" values="0 0 0 0 0.0586592 0 0 0 0 0.152514 0 0 0 0 0.241341 0 0 0 0.25 0"/>
<feBlend mode="normal" in2="BackgroundImageFix" result="effect1_dropShadow_36_998"/>
<feBlend mode="normal" in="SourceGraphic" in2="effect1_dropShadow_36_998" result="shape"/>
</filter>
<clipPath id="clip0_36_998">
<rect x="22" y="14" width="100" height="100" rx="50" fill="white"/>
</clipPath>
</defs>
</svg>
